<svg version="1" xmlns="http://www.w3.org/2000/svg" width="2133.333" height="2133.333" viewBox="0 0 1600.000000 1600.000000"><path d="M259.8 532.5c-.1.2-7.3.6-15.8 1-8.5.3-18.2.8-21.5 1.1-3.3.2-9.4.6-13.5.8-4.1.3-9.7.7-12.5 1-2.7.4-7.7.8-11 1.1-5.7.4-9.2.7-21.5 2.1-20.4 2.2-23.5 2.6-26.5 3-6.5 1-8.2 1.3-13.5 1.9-3 .3-7.7 1-10.5 1.5-2.7.5-7.2 1.2-10 1.5-2.7.3-5.9.8-7 1.1-1.1.2-3.6.6-5.5.9-1.9.2-4.6.6-6 .9-1.3.3-4 .8-6 1.1-2 .3-4.7.8-6 1-1.4.3-3.8.8-5.5 1-1.6.3-3.7.8-4.5 1-1.3.4-6.6 1.2-12.5 2.1-1.1.1-2 .3-2 .4 0 .1-.7.3-1.5.5-.8.1-5.3 1-10 2-4.7.9-9.4 1.9-10.5 2.1-1.1.1-6 1.2-11 2.4-7.9 1.9-12.1 2.7-14.8 2.9-.4.1-.5 1.3-.3 2.8.2 1.6.7 4.6 1 6.8 1 7.2 1.6 11 2 13 .4 2.3 1.3 8.2 2.1 14 .3 2.3.7 5 .9 6 .2 1.1.7 4.5 1.1 7.5.4 3 .9 6.4 1.1 7.5.3 1.1.6 3.6.9 5.5.2 1.9.6 5 .9 6.7.3 1.8.8 4.6 1.1 6.3.3 1.6.7 4.3 1 6 .7 4.3 1.2 7.7 2.1 14 .4 3 .9 5.8 1 6.2.1.5.2 1.8.3 3.1.1 1.4.7 2.3 1.9 2.3 8.6.2 19 3 26 7.1 8.7 5.1 15.1 16.4 15.8 27.8.1 3.3.6 10.9.9 17 .3 6 .8 13.9 1 17.5.3 3.6.8 10.1 1 14.5.6 8.9.7 9.3 3 32.5.1 1.4.5 4.7.9 7.5.8 6.2 1.7 13.2 2.1 16.5.3 2.5 2.2 14.3 3 19 .3 1.4.9 5 1.5 8s1.3 6.8 1.6 8.5c.3 1.6 1.4 6.5 2.4 11s2.1 9.2 2.4 10.5c.9 4.3 5.4 20.3 7 24.8.8 2.3 1.5 4.3 1.5 4.5-.1 1.3 6 17.7 10.8 28.7 23.1 53.3 58.2 89.7 106.8 110.9 5.5 2.4 10.9 4.7 12 5.2 8.2 3.2 31.8 9.9 40.5 11.5 2.5.4 4.7.8 5 .9.3.1 2.5.5 5 .9 2.5.5 5.4 1 6.5 1.2 1.1.2 3.8.6 6 .9 2.2.3 5.8.8 8 1.1 2.2.3 5.6.7 7.5.9 1.9.1 8 .6 13.5 1.1 5.5.5 22.6.8 38 .8 25.2 0 35.2-.4 51-1.9 2.8-.2 7-.6 9.5-.8 2.5-.3 6.3-.7 8.5-1.1 2.2-.4 5.4-.8 7-1.1 2.8-.3 8-1.1 13.3-2 1.2-.2 3-.6 4-.9.9-.3 3.3-.7 5.2-1 5.6-.9 26.8-6.2 36-9 4.7-1.5 9.2-2.8 10-3 3.1-.8 26.7-10 33-12.8 8.2-3.8 24.3-11.8 29.3-14.6 2-1.2 5.4-3.1 7.5-4.3 6.5-3.7 24.4-15.9 33.2-22.8 4.7-3.6 9-6.9 9.5-7.3 6.7-5.2 35.8-33.4 40.5-39.4.9-1 4.5-5.5 8.1-9.9 8.9-11 14.3-18.2 22.1-30 7.5-11.4 16.8-27.1 16.8-28.4 0-.5.4-1.1.8-1.3 1.2-.5 14.3-27.7 19.7-40.8 7.3-17.6 16.3-43.9 19-55 .2-.8 1.6-6.4 3-12.4 2.9-11.8 3-12.5 3.9-18.1.4-2 .8-4.1 1.1-4.5.2-.4.7-2.2.9-4.1 1.1-7.5 4.6-17.8 8.4-24.7 4.2-7.7 13.8-16.3 21.2-19.2 3.6-1.4 7.2-2.6 8-2.7.8-.1 3.5-.5 6-1 2.5-.4 10.6-.7 18-.6 11.5.1 14.5.4 20 2.5 16.2 5.9 26.3 17.5 33.1 37.8 1.2 3.6 2.4 6.9 2.8 7.5.3.5.6 1.2.7 1.5.1.6 1.3 3.8 2.4 6.5.5 1.1 4.3 10.5 8.5 21 4.2 10.4 8.1 20.1 8.7 21.5.6 1.4 1.4 3.4 1.9 4.5 12.3 30.5 39.2 86.5 51.7 108 8.1 13.8 11.5 19.5 18.1 29.5 4.2 6.3 7.8 11.7 8.1 12 .3.3 1.7 2.1 3 4 1.4 1.9 3 4.2 3.7 5 .7.8 2.6 3.3 4.3 5.5 10 12.7 25.8 29.2 37 38.6 3.6 3 6.7 5.7 7 6 1.1 1.2 17.9 12.7 23.5 16.1 24 14.4 49.4 24.6 81 32.4 11.4 2.9 22.6 5.3 27 5.9 1.7.3 4.1.7 5.5 1 1.4.3 3.9.7 5.5 1 1.7.3 4.4.7 6 1 1.7.3 4.8.7 7 1 2.2.3 5.1.7 6.5 1 2.3.5 7.7 1.1 16 2 1.9.2 4.9.6 6.5.9 1.7.3 6.7.8 11 1.1 4.4.3 9.6.8 11.5 1 14.2 1.5 26.1 2 50.5 1.9 15.4 0 31.2-.4 35-.8 3.9-.4 8.8-.9 11-1.1 2.2-.2 5.7-.6 7.8-.9 2-.3 5.4-.8 7.5-1.1 2-.3 4.4-.7 5.2-1 .8-.2 3.2-.6 5.4-1 2.1-.3 4.2-.7 4.6-1 .4-.3 2.5-.7 4.6-1 2.2-.3 4.6-.9 5.4-1.2.8-.3 2.2-.7 3.1-.9.9-.2 5.6-1.7 10.5-3.3 46-15 78.8-40.5 103.5-80.3 12.8-20.6 28.8-62.3 34.4-89.8.2-.8 1.1-4.7 2-8.5.9-3.9 1.9-8.1 2.1-9.5.2-1.4.7-3.6 1-5 .3-1.4.8-3.6 1.1-5 .2-1.4 1-5.7 1.8-9.5.8-3.9 1.7-8.8 2-11 .4-2.2.8-4.7 1-5.5.2-.8.7-3.1 1-5 .8-4.7 1.4-8 2-11 .2-1.3.7-4.2 1-6.5.3-2.2.8-4.7 1-5.5.3-1.3.7-3.2 2-11.5.2-1.1 1.3-6.5 2.4-12 1.1-5.5 2.3-11.4 2.6-13.1.3-1.8 2.3-10.5 4.6-19.5 5.1-20.5 11.4-37.8 15.3-42.7 5.9-7.2 13-12.6 17.8-13.6 1.3-.3 4.1-1 6.2-1.5 2.2-.5 4.2-.9 4.5-.9.3 0 2 0 3.7-.1 3.1-.1 3.2-.3 3.8-5.9 1.3-11.2 3.1-25.6 4.2-33.7.3-2.8.8-6.4.9-8 .2-1.7.4-3.2.5-3.5.1-.3.2-.9.1-1.3-.1-.5.3-3.4.8-6.5.5-3.2 1.3-8.4 1.6-11.7.3-3.3 1.1-9.2 1.6-13 .5-3.9 1.2-8.8 1.4-11 .3-2.2.7-5.9 1-8.2.6-4.5.2-4.8-6.2-5.9-1.6-.3-3.6-.7-4.5-1-1-.3-3-.7-4.5-1-2.4-.4-5.3-1-9.8-2-.5-.1-2.6-.5-4.5-.8-1.9-.4-4.2-.9-5-1.1-.8-.2-2.6-.6-4-.9-5.2-1-18.6-3.6-20.7-4.1-1.3-.3-3.1-.7-4.2-.9-1-.2-3.4-.7-5.2-1-1.9-.3-9.5-1.7-16.9-3.1-7.4-1.4-14.4-2.7-15.5-2.9-1.1-.2-3.6-.7-5.5-1.1-1.9-.3-4.6-.8-6-1-2.9-.3-18.3-2.9-24-4-1.4-.3-4.7-.8-7.5-1.1-2.7-.3-5.9-.7-7-.9-1.1-.2-4-.6-6.5-1s-5.6-.9-7-1.1c-1.4-.3-4.5-.7-7-1-2.5-.3-5.8-.7-7.5-1-3.9-.6-8.7-1.2-15-1.8-2.7-.3-6.6-.8-8.5-1-6.3-.9-15-1.8-29-3.1-4.1-.4-9.5-.9-12-1.1-4.1-.4-9.9-.8-26-1.9-36.9-2.5-106.2-2.5-140 0-2.5.2-8.1.6-12.6.9-7.6.5-14.2 1-24.4 2.1-2.5.3-6.7.7-9.5 1-2.7.3-7.2.8-10 1.2-2.7.3-6.1.7-7.5.8-1.4.1-4.3.5-6.5.8-3.5.6-8.8 1.3-15 2.2-3.2.4-11.8 1.7-14 2.1-1.1.2-4 .7-6.5 1-2.5.3-5.3.8-6.3 1-1 .3-3 .7-4.5.9-3.6.5-8.8 1.4-13.7 2.5-2.2.5-5.7 1.1-7.7 1.4-2.1.3-5.9 1.1-8.5 1.7-2.7.6-5.7 1.2-6.8 1.5-3.7.7-12 2.4-14 2.9-1.1.2-3.5.8-5.4 1.4-1.8.6-3.6 1-4 .9-.3 0-.9.1-1.3.2-.5.1-1.1.3-1.5.4-.5.1-4.4 1-8.8 2s-12 2.8-17 4.1c-4.9 1.3-10.1 2.6-11.5 2.8-1.4.3-4.3 1-6.5 1.6-6.2 1.7-24.1 5.8-33.5 7.6-4.7 1-8.9 1.8-9.5 1.9-23.3 4.8-34.1 6.7-46 8.1-2.7.3-6.3.9-8 1.2-1.6.3-4.6.7-6.5.9-1.9.2-5.3.5-7.5.8-5.5.8-15.5 1.6-24.7 2.1-4.3.2-8.2.6-8.7.9-.5.4-1.2.2-1.5-.3-.3-.4-2.3-.6-4.3-.2-4.2.7-13.8.6-28.8-.3-9.6-.6-12-.8-23-2.2-2.7-.4-6.1-.8-7.5-1-1.4-.1-3.6-.5-5-.8-1.3-.3-4.2-.8-6.5-1.1-9.1-1.4-10.9-1.7-13.2-2.6-1.3-.5-2.3-.7-2.3-.4 0 .2-1.4 0-3.2-.5-1.7-.5-4.9-1.2-7.2-1.6-2.2-.3-4.4-.8-4.8-1-.3-.2-2.6-.8-5-1.3-2.4-.4-11.5-2.5-20.3-4.5s-20-4.6-25-5.7c-4.9-1.1-11.7-2.6-15-3.4-6.3-1.5-39.6-8.4-43-9-1.1-.1-4.2-.8-6.9-1.4-2.7-.7-5.1-.9-5.4-.7-.2.3-1.2.1-2.1-.3-.9-.5-3.6-1.2-6.1-1.6-5.5-.8-6.3-1-17-3-4.7-.9-11-2-14-2.5-11.3-1.8-16.5-2.7-16.5-3 0-.1-1.6-.3-3.5-.5-7.2-.7-12-1.4-12.7-1.8-.5-.3-3-.7-5.8-1.1-2.7-.3-6.1-.8-7.5-1-1.4-.3-4.7-.7-7.5-1.1-7.5-1-11.1-1.4-15.2-2-3.9-.6-10.1-1.3-16.3-1.9-1.9-.2-5.1-.6-7-.9-1.9-.4-6.2-.9-9.5-1.2-3.3-.3-7.1-.7-8.5-.9-1.4-.3-6.1-.7-10.5-1.1-4.4-.3-9.3-.8-11-1-2.8-.4-13.8-1.3-24.5-2-8.6-.6-26.5-1.7-34.5-2.2-9.2-.5-104.2-1.3-104.7-.8zm116.7 46c4.4.3 10 .8 12.5 1 10 .9 17.2 1.6 22.2 2 2.9.3 7.8.7 10.8 1 6.9.7 14.7 1.4 22.5 2 3.3.3 7.4.7 9 .9 1.7.2 6.6.7 11 1.1 4.4.4 8.9.9 10 1.2 1.1.2 4.3.6 7.2.8 2.9.3 6.5.7 8 .9 1.5.3 5.3.7 8.3 1.1 3 .3 7.8 1 10.6 1.6 2.8.5 5.5.9 6 .8.5-.1 1.1 0 1.4.1.9.3 3.4.8 8 1.5 2.5.3 9 1.6 14.5 2.7s10.9 2.2 11.9 2.4c10 2 27.8 7.3 40.6 12.2 10.4 3.9 27.3 12 27.8 13.4.2.4.9.8 1.5.8 1.5.1 15.1 10.2 20.4 15.1 5.6 5.2 10.3 10.7 10.3 11.9 0 .5.4 1 .9 1 1.1 0 8.2 11.8 11.4 19 3.1 7 7.1 20 6.3 20.7-.3.3-.1 1.4.5 2.5 3.3 6.1 2.6 42.1-1.1 59.3-.5 2.2-1.1 5.3-1.4 7-.3 1.6-1.7 7.3-3.1 12.5-1.4 5.2-2.7 10.2-2.9 11-.2.8-1.4 4.4-2.6 8-1.2 3.6-2.3 7.2-2.5 8-.8 3.2-11.3 31.8-13.5 36.5-.5 1.1-3.2 7.4-6.1 14-5.1 11.9-16.1 33.6-20.6 40.7-1.2 2.1-2.3 4.1-2.3 4.4 0 .4-1.1 2.2-2.5 4-1.4 1.8-2.5 3.5-2.5 3.8 0 .7-11.1 16.5-16.1 22.8-11.8 15.1-23.4 27.1-39.5 40.8-4.4 3.9-19.1 14.1-26.9 18.9-21.4 13-55.3 26.3-80.5 31.5-1.4.3-3.6.7-5 1.1-1.4.3-3.6.7-5 1-1.4.2-3.6.7-5 .9-2.5.5-8.2 1.4-13 2.1-2.3.3-11 1.3-18.5 2.1-20.4 2.1-68.5 2.1-92.5-.1-20.5-1.8-25.1-2.3-28-2.9-1.4-.2-4.3-.7-6.5-1-4.1-.6-7.7-1.2-11.7-2.1-1.3-.3-3.6-.8-5.3-1.1-18.6-3.8-39.6-12.3-54.5-22.2-7.5-5-23-19.3-28.4-26.1-9.8-12.5-21.2-35-28-55.1-4.5-13.5-10.2-34.3-11.2-41-.3-1.9-.9-4.9-1.4-6.5-.5-1.7-1.1-4.1-1.3-5.5-.3-1.4-.8-4.5-1.2-7-.4-2.5-.9-5.4-1.2-6.5-.2-1.1-.6-3.5-.9-5.4-.6-4.9-1.4-9.4-1.9-11.1-.5-2-1.8-12.7-1.9-16.3 0-1.5-.3-2.7-.6-2.7s-.6-1.2-.7-2.8c0-1.5-.4-5.4-.8-8.7-1.5-11.5-.8-84.7.9-94.5.2-1.4.7-5.2 1.1-8.5 2.5-21.8 9.7-43 20-58.4 5-7.5 15.9-18.9 22.5-23.4 2.5-1.7 4.7-3.4 5-3.9 1.5-2 26.7-13.9 36.5-17.1 10.6-3.4 23.7-7 30-8.1 1.7-.3 4.1-.8 5.5-1.1 3.7-.8 16.9-3 24.5-4 12.6-1.6 18.1-2.2 28.5-3 4.1-.4 9.5-.8 12-1 2.5-.2 16.7-.7 31.5-1 14.9-.4 27.2-.9 27.4-1.1.2-.2.7-.2 1 0 .3.3 4.2.7 8.6 1.1zm884.5 0c32.3.7 47.9 1.7 65.5 4.1 2.2.2 5.8.7 8 .9 2.2.2 5.5.6 7.3.9 1.7.3 4.4.8 6 1 14.4 2 41.5 8.8 50.7 12.6 1.1.4 3.6 1.4 5.5 2.1 5.3 1.9 18.8 8.6 24.5 12.2 10 6.2 19.4 14.6 26.1 23.2 2.1 2.7 4.2 5.2 4.5 5.5.3.3 1.3 1.8 2.1 3.5.9 1.6 2.9 5.5 4.5 8.5 3.4 6.4 7.5 18.6 9.8 28.5 2.4 10.6 2.2 9 4 24 2.8 22.6 2.7 93.9-.1 107.8-.2 1.2-.7 4.6-1 7.6-.3 3-.7 5.8-.9 6.1-.2.3-.6 3.3-1 6.5-.3 3.3-.8 6.7-1.1 7.6-.3.9-.7 3.3-.9 5.2-.4 2.9-2.5 13.3-7.1 35.6-1.2 5.6-6.7 25.1-9 31.6-1.3 3.8-2.6 7.7-2.8 8.6-1.3 5.1-11.5 27.2-12.8 27.7-.4.2-.8.9-.8 1.6 0 1.2-9.2 15.9-11.4 18.2-.6.6-2.6 3-4.4 5.2-3.8 4.7-14.6 15.3-16.9 16.6-.9.5-2.7 1.8-4 3-2.8 2.5-9.1 6.4-11.5 7.2-1 .4-1.8 1-1.8 1.5s-.9.9-1.9.9c-1.1 0-2.1.4-2.3.8-1.1 2.7-31.4 13-46.3 15.7-1.1.2-4.5.8-7.5 1.4-9.3 1.7-13.8 2.3-26.5 3.5-3.8.4-9 .9-11.5 1.2-21.1 2.2-74.4 2.1-94-.1-1.9-.2-6.2-.7-9.5-1-3.3-.3-6.7-.7-7.5-.9-.8-.1-3.7-.6-6.5-1-2.7-.4-6-.9-7.3-1.1-1.2-.2-3-.6-4-.9-.9-.3-3.3-.7-5.3-1-2-.3-4.8-1-6.2-1.5-1.4-.5-2.7-.8-3-.5-.2.3-1.5.1-2.8-.5-1.3-.5-4.4-1.4-6.9-2.1-11.5-3.1-27.4-8.5-35.5-12-12.5-5.3-33.7-16.5-34.3-18.1-.2-.5-.8-.9-1.4-.9-.9 0-10.5-6.2-14.2-9.1-22.3-17.6-35.8-31.1-49.9-49.9-10.6-14.2-14.6-20.1-21.7-32.5-1.9-3.3-4-6.9-4.7-8-1.7-2.8-3.1-5.9-2.9-6.5 0-.3-.8-1.9-2-3.5-1.7-2.5-6.5-11.8-6.9-13.5-.1-.3-1.4-3.2-2.9-6.5s-4.3-9.8-6.2-14.5c-1.9-4.7-3.9-9.4-4.4-10.5-.5-1.1-3.2-8.5-6-16.5s-5.5-15.6-6-17c-1.2-3.5-6.9-22.9-7.6-26-5.8-26.8-7.4-44.4-5.9-64.5.5-6.8 4.8-26.2 6.5-29.4.5-.9 2.3-4.8 4.2-8.6 1.8-3.9 3.9-7.6 4.6-8.3.6-.8 1.7-2.3 2.3-3.4 2.7-5 12.7-15.6 19.8-21 3.1-2.4 5.8-4.5 6.1-4.8.8-1 11.1-7.1 17-10.2 14.7-7.8 42.8-17.5 61.5-21.3 5.2-1 6.9-1.4 12-2.5 2.8-.6 6.3-1.3 7.8-1.5 1.6-.2 4-.6 5.5-.9 1.5-.3 4.1-.8 5.7-1.1 1.7-.3 3.9-.7 5-.9 1.1-.2 4.7-.7 8-1.1 3.3-.4 6.9-.9 8-1 1.1-.2 4.5-.6 7.5-.9 3-.4 7.8-.9 10.5-1.3 2.8-.3 6.1-.7 7.5-.8 1.4-.1 4.8-.5 7.5-.9 5.5-.7 11.5-1.3 21.5-2.1 3.6-.3 8.1-.8 10-1 1.9-.3 6.7-.7 10.6-1 4-.3 8.9-.7 11-1 2.2-.2 7.5-.6 11.9-1 4.4-.3 9.1-.8 10.5-1 1.4-.2 6.5-.7 11.5-1 4.9-.4 9.1-.8 9.3-1 .2-.2.9-.2 1.5 0 .7.2 12.2.6 25.7 1zM100 616.4c7.3 1.3 17.1 5 18.5 6.9 5.1 7.2-12.4 12.2-42.5 12.1-23.3-.1-39.6-4.9-37.6-11.1 1.1-3.3 10.7-6.9 21.6-8 2.4-.2 4.6-.6 4.8-.8.6-.6 31.2.2 35.2.9zm1442.5 10.1c3.9.5 7.2.9 7.5 1 .3.1 2.1.5 4 .9 4.7 1.1 11.8 4.6 12.4 6.2.5 1.3-3 6.5-4.2 6.2-.4-.1-2 .4-3.6 1.1-1.6.6-4.1 1.3-5.6 1.5-1.5.2-3.1.6-3.6.9-2.4 1.5-28.1 2.2-39.4 1.2-13.1-1.3-25-5.8-25-9.5 0-1 1.3-2.8 3-4 2.8-2 4.1-2.4 10-3.6 1.4-.2 3.1-.7 3.7-.9.7-.2 4.5-.7 8.5-1.1 4-.3 7.4-.7 7.5-.8.6-.5 18.4.2 24.8.9z"/></svg>