<svg xmlns="http://www.w3.org/2000/svg" xmlns:xlink="http://www.w3.org/1999/xlink" version="1.1" id="Layer_1" x="0px" y="0px" width="100px" height="100px" viewBox="0 0 100 100" enable-background="new 0 0 100 100" xml:space="preserve">
<g>
  <path fill="#FFF" d="M92.977,50.001C92.977,50,92.977,50,92.977,50.001c0-23.728-19.234-42.962-42.961-42.962   c-16.988,0-31.67,9.86-38.642,24.169l6.647,6.651c4.939-12.845,17.393-21.961,31.977-21.961c18.867,0,34.169,15.255,34.249,34.103   c-0.548,0-6.91,0-6.91,0l11.326,11.334L100,50.001H92.977z"/>
  <path fill="#FFF" d="M49.997,84.398c-18.916,0-34.25-15.334-34.25-34.25c0-0.05,0.002-0.1,0.002-0.148c0.517-0.001,6.915,0,6.915,0   L11.338,38.665L0,49.999h7.054c0,0.001,0,0.001,0,0.001c0,23.727,19.234,42.961,42.961,42.961c16.979,0,31.656-9.852,38.632-24.149   l-6.589-6.594C77.177,75.178,64.665,84.398,49.997,84.398z"/>
  <circle fill="#FFF" cx="50.016" cy="50" r="23.052"/>
</g>
</svg>