<?xml version="1.0" encoding="UTF-8"?>
<svg width="26" height="26" version="1.1" viewBox="0 -49.2858 25.7143 25.7143" xmlns="http://www.w3.org/2000/svg" xmlns:xlink="http://www.w3.org/1999/xlink">
    <!--Generated by IJSVG (https://github.com/curthard89/IJSVG)-->
    <g fill="#000000">
        <path d="M17.1429,22.9688c-1.32255,0.552456 -2.76228,0.870537 -4.28572,0.870537c-2.66183,0 -5.08929,-0.954242 -6.99778,-2.51116c0,0 0.15067,0.100447 0.251116,0.184152c2.10938,-4.58706 8.62166,-6.86385 8.62166,-6.86385c0.016742,0 0.050224,-0.016741 0.066965,-0.016741c1.54018,4.01786 2.17634,7.36608 2.34375,8.33706Zm-3.0971,-10.1618c-0.133929,0.050223 -0.284599,0.083705 -0.435269,0.133929c0,0 -5.92635,1.90848 -8.923,7.24889c-1.74107,-1.94197 -2.8125,-4.5201 -2.8125,-7.3326c-2.22045e-16,-0.117187 -2.22045e-16,-0.234375 0.016741,-0.351563c0.184152,0 5.60827,0.133929 11.2668,-1.55692c0.318081,0.61942 0.61942,1.23884 0.887278,1.85826Zm-1.7913,-3.54911c-5.27344,1.38951 -9.8605,1.33929 -10.1451,1.33929c0.719866,-3.39844 2.99666,-6.22769 6.06028,-7.66742c0.150669,0.200893 2.17634,2.94643 4.08483,6.32813Zm11.4509,5.34041c-0.502232,3.06362 -2.24331,5.70871 -4.70425,7.36608c-0.117188,-0.652903 -0.703126,-3.88393 -2.14286,-7.85157c3.54911,-0.552456 6.61273,0.418527 6.84711,0.485492Zm-13.4766,-12.4051c-0.016741,0 -0.033482,0.016741 -0.033482,0.016741c0.016741,-0.016741 0.016741,-0.016741 0.033482,-0.016741Zm9.87724,2.42746c-0.033482,0.050223 -1.5904,2.42746 -5.72545,3.96764c-1.875,-3.44867 -3.9509,-6.17746 -4.11831,-6.3951c0.837055,-0.200893 1.70759,-0.318081 2.59487,-0.318081c2.77902,0 5.32367,1.03795 7.24889,2.74554Zm3.73326,8.11943c-0.133929,-0.016742 -3.86719,-0.837055 -7.65068,-0.351563c-0.083705,-0.184152 -0.150669,-0.385046 -0.234375,-0.569198c-0.234375,-0.535714 -0.485492,-1.07143 -0.736608,-1.5904c4.33594,-1.77456 6.09376,-4.3192 6.12724,-4.35268c1.54018,1.875 2.46094,4.26898 2.49442,6.86385Zm1.875,0.117187c0,-7.09822 -5.75894,-12.8572 -12.8572,-12.8572c-7.09822,0 -12.8572,5.75894 -12.8572,12.8572c0,7.09822 5.75894,12.8572 12.8572,12.8572c7.09822,0 12.8572,-5.75894 12.8572,-12.8572Z" transform="translate(0, -49.2858)"></path>
    </g>
</svg>