<svg viewBox="0 0 24 24">
    <path d="M19.8284,2.14921l1.9475e-07,1.94841e-07c-2.14738,-2.14839 -5.62979,-2.14921 -7.77817,-0.00182601c-0.000608683,0.000608398 -0.00121722,0.00121694 -0.00182562,0.00182562l-1.06,1.06l-1.06,-1.06l3.78705e-07,3.78706e-07c-2.14839,-2.14839 -5.63161,-2.14839 -7.78,-7.57411e-07c-2.14839,2.14839 -2.14839,5.63161 -7.57411e-07,7.78c0,0 1.77636e-15,1.77636e-15 1.77636e-15,1.77636e-15l1.06,1.06l7.78,7.78l7.78,-7.78l1.06,-1.06l9.88459e-08,-9.87995e-08c2.14839,-2.14738 2.1492,-5.62979 0.00182542,-7.77817c-0.000608398,-0.000608683 -0.00121694,-0.00121722 -0.00182562,-0.00182562Z" transform="translate(1.01161, 2.46079)" fill="none" stroke="#000"></path>
</svg>