<svg viewBox="0 0 24 24">
    <path d="M18,8.50328l1.21288e-08,4.65239e-06c0.00344052,1.31987 -0.304933,2.62188 -0.900002,3.8l3.86413e-08,-7.7316e-08c-1.43904,2.87933 -4.38109,4.69875 -7.6,4.7l3.13704e-07,-8.1792e-10c-1.31987,0.0034413 -2.62188,-0.304931 -3.8,-0.9l-5.7,1.9l1.9,-5.7l-4.39632e-08,-8.70382e-08c-0.595069,-1.17812 -0.903441,-2.48013 -0.9,-3.8l-1.29381e-07,0.000353341c0.00111175,-3.21891 1.82042,-6.16103 4.69968,-7.6002l-2.15958e-09,1.09081e-09c1.17812,-0.595069 2.48013,-0.903441 3.8,-0.9h0.5l-3.72417e-07,-2.05459e-08c4.31581,0.2381 7.7619,3.68419 8,8v0.5Z" transform="translate(3, 2.99672)"></path>
</svg>