<svg xmlns="http://www.w3.org/2000/svg" xmlns:xlink="http://www.w3.org/1999/xlink" version="1.0" id="structure" class="structure" x="0px" y="0px" width="50px" height="50px" viewBox="0 0 50 50" enable-background="new 0 0 50 50" xml:space="preserve">
<g>
  <path d="M4.027,13.404l-0.002,0.001c0.002,0.003,0.006,0.007,0.01,0.01C4.031,13.411,4.029,13.407,4.027,13.404z    M36.371,49.134c0.049-0.004,0.096-0.007,0.15-0.011c0.16-0.017,0.375-0.076,0.592-0.187c0.281-0.124,0.422-0.264,0.512-0.381   c0.039-0.043,0.187-0.088,0.224-0.136C37.864,48.4,38,48.38,38,48.36c0,0,0,0,0-0.002c0-0.106,0.009-0.176,0.036-0.226   c0.01-0.021,0.224-0.714,0.218-0.914c-0.012-0.562-0.315-1.071-0.722-1.413l-0.118-0.09c-0.271-0.259-0.923-0.877-2.258-2.17   c-0.101-0.073-0.338-0.49-0.352-1.492c-0.057-1.596,0.497-4.035,1.009-6.825c2.23-0.485,4.229-0.991,5.758-1.168   c0.373-0.042,0.719-0.067,1.033-0.066c1-0.021,1.411,0.199,1.483,0.297c1.02,0.984,1.635,1.577,1.992,1.925   c0.033,0.037,0.07,0.072,0.105,0.107c0.004,0,0.348,0.327,0.348,0.33c0.758,0.721,1.951,0.694,2.674-0.059   c0.209-0.22,0.561-0.478,0.646-0.756c0.002-0.01,0.545-0.883-3.125-4.25c-0.568-0.521-1.186-0.875-1.84-1.079   c-0.77-0.242-1.574-0.31-2.346-0.299c-1.191,0.036-2.486,0.233-3.836,0.502c-0.746,0.146-1.506,0.313-2.277,0.485   c0.129-1.169,0.211-2.358,0.197-3.537V27.66l0,0c-0.039-3.281-0.898-6.747-3.625-9.377c-0.162-0.159-0.328-0.31-0.496-0.456   c-2.518-2.175-5.609-2.817-8.52-2.754c-0.861,0.02-1.723,0.091-2.578,0.193c-0.42,0.051-0.838,0.109-1.255,0.175   c0.309-1.825,0.56-3.64,0.549-5.359c-0.003-0.223-0.011-0.446-0.026-0.669c-0.066-1.027-0.27-2.063-0.688-3.023   c-0.334-0.77-0.807-1.492-1.462-2.126c-1.159-1.128-1.905-1.845-2.353-2.284c-0.227-0.218-0.379-0.366-0.473-0.459   c-0.039-0.035-0.066-0.065-0.086-0.083c-0.016-0.016-0.033-0.033-0.049-0.049c-0.36-0.348-0.852-0.54-1.35-0.53   C14.128,0.85,14.007,0.86,13.869,0.89c-0.007,0.001-0.015,0.003-0.025,0.005c-0.018,0.004-0.035,0.008-0.055,0.014   c-0.004,0.002-0.006,0.002-0.008,0.003c-0.143,0.036-0.343,0.092-0.641,0.298c-0.334,0.191-0.805,0.855-0.794,1.511   c0.001,0.019,0.001,0.04,0.003,0.061c0.004,0.265,0.066,0.527,0.178,0.764c0.053,0.135,0.092,0.19,0.123,0.225   c0.08,0.121,0.171,0.233,0.273,0.336c0,0.002,0.963,0.934,0.965,0.934c0.02,0.02,0.038,0.038,0.057,0.054   c0.447,0.433,1.121,1.036,1.976,1.865C15.931,6.968,16,6.978,16,6.987V6.984c0,0.291,0.478,0.646,0.646,1.093   c0.199,0.536,0.279,1.205,0.297,2.065c0.05,1.659-0.352,3.755-0.763,6.06c-2.292,0.484-4.383,0.943-6.042,0.948   c-1.584,0.016-2.542-0.285-3.197-0.92c-1.16-1.126-1.904-1.844-2.351-2.28c-0.229-0.219-0.38-0.366-0.473-0.459   c-0.034-0.033-0.063-0.056-0.082-0.076c0.007,0.007,0.016,0.017,0.032,0.035c-0.016-0.016-0.028-0.031-0.042-0.044l0,0   c0,0-0.004-0.003-0.006-0.004c0,0,0.002-0.001,0-0.001c-0.004-0.003-0.004-0.004-0.004-0.004c0-0.002-0.004-0.002-0.004-0.002   l-0.015-0.02l-0.003,0.002c-0.107-0.11-0.232-0.206-0.369-0.286c-0.312-0.19-0.664-0.278-1.016-0.269   c-0.111-0.009-0.271-0.004-0.45,0.049C2.031,12.903,1.904,13,1.783,13H1.781l0.004,0.021c-0.299,0.155-0.592,0.406-0.775,0.75   c-0.197,0.505-0.254,0.856-0.25,1.098c0.002,0.208,0.05,0.343,0.1,0.441c0.002,0.003,0.002,0.006,0.004,0.01   C0.91,15.496,0.959,15.703,1,15.754C1.025,15.797,1.047,16,1.064,16c0.002,0,0.002,0,0.002,0c0.004,0,0.006-0.121,0.01-0.115   c0.09,0.147,0.113,0.097,0.129,0.108c0.009,0.013,0.015-0.014,0.021-0.007c0.001,0.002,0.005-0.007,0.009-0.003   c0.117,0.129,0.066,0.061,0.091,0.089c0.089,0.087,0.966,0.938,0.974,0.946c0.028,0.027,0.057,0.05,0.087,0.076   c0.436,0.42,1.038,1.002,1.874,1.815c0.014,0.016,0.027,0.031,0.044,0.046l0,0c0.825,0.797,1.778,1.302,2.784,1.602   c0.004,0.001,0.006,0.002,0.01,0.002c0.016,0.006,0.033,0.01,0.05,0.014c0.993,0.291,2.032,0.382,3.044,0.362   c1.721-0.045,3.528-0.355,5.343-0.723c-0.116,0.949-0.189,1.912-0.233,2.875c-0.125,2.722,0.954,6.116,1.001,6.231   c0.046,0.112,0.094,0.223,0.145,0.333c0.033,0.073,0.06,0.145,0.095,0.217c0.074,0.156,0.154,0.311,0.237,0.465   c0.014,0.026,0.026,0.052,0.039,0.078c0.501,0.908,1.143,1.771,1.96,2.56c0.17,0.165,0.343,0.321,0.52,0.474   c1.94,1.66,4.219,2.451,6.512,2.729c0.824,0.098,1.648,0.133,2.458,0.118c1.182-0.026,2.369-0.146,3.535-0.314   c-0.414,2.184-0.795,4.288-0.791,6.139c0.027,1.433,0.307,2.961,1.486,4.143c0.994,0.964,1.604,1.549,1.963,1.898   c0.021,0.019,0.043,0.04,0.063,0.061c0.027,0.028,0.057,0.057,0.084,0.083c0.004,0.002,0.08,0.072,0.162,0.151   c0.027,0.026,0.053,0.049,0.07,0.069c0.041,0.036,0.063,0.061,0.082,0.08c0.012,0.009,0.021,0.015,0.029,0.023   c0.008,0.007,0.012,0.013,0.021,0.021c0.008,0.006,0.014,0.014,0.035,0.031c0.016,0.012,0.025,0.023,0.068,0.055   c0.021,0.021,0.043,0.042,0.115,0.091c0.039,0.024,0.084,0.056,0.188,0.11c0.016,0.002,0.027,0.008,0.041,0.014   c0.006,0.002,0.01,0.005,0.016,0.007c0.078,0.04,0.17,0.104,0.43,0.151c0.061,0.012,0.133,0.022,0.221,0.029   c0.061,0.006,0.127,0.008,0.197,0.012C36.314,49.142,36.344,49.138,36.371,49.134z M26.314,32.414   c-0.987-0.111-1.9-0.336-2.738-0.708c-0.786-0.346-1.507-0.822-2.164-1.456c-0.494-0.484-0.892-1-1.211-1.548   c-0.779-1.342-1.083-2.887-1.124-4.704c-0.016-0.599,0.008-1.215,0.055-1.842c0.07-0.898,0.191-1.819,0.34-2.757   c1.582-0.302,3.125-0.531,4.574-0.542c2.565-0.025,4.604,0.489,6.319,2.144c0.791,0.765,1.354,1.63,1.742,2.596   c0.475,1.179,0.688,2.51,0.73,3.986c0,0.047,0.002,0.091,0.006,0.138c0.014,0.647-0.012,1.307-0.064,1.975   c-0.059,0.77-0.154,1.55-0.271,2.335c-1.459,0.268-2.91,0.46-4.301,0.473C27.549,32.511,26.918,32.482,26.314,32.414z"/>
  <g>
    <path d="M18.164,27.571l10.473-10.813c-0.713-0.283-0.229-0.289,0.07-0.001l0,0c0.299,0.29,0.307,0.771,0.018,1.07    l1-0.016L19.253,28.625c-1.292,0.315-1.771,0.323-2.072,0.034l0,0c-0.152-0.145-0.23-0.34-0.23-0.533l0,0    c-0.006-0.193,0.067-0.389,0.213-0.539L18.164,27.571z"/>
  </g>
  <g>
    <path d="M23.044,32.298l10.473-10.813c0.307,0.701,0.787,0.692,1.088,0.982l0,0    c0.301,0.292,0.307,0.772,0.016,1.073l-0.016-1L24.134,33.353c-0.275,1.299-0.756,1.307-1.057,1.016l0,0    c-0.15-0.143-0.226-0.338-0.229-0.532l0,0c-0.003-0.191,0.066-0.387,0.211-0.538L23.044,32.298z"/>
  </g>
  <g>
    <path d="M5.636,17.537L16.105,6.726c0.291-0.3,0.773-0.308,1.072-0.019l0,0C17.477,7,17.485,7.48,17.195,7.78l0,0    L6.726,18.59c-0.291,0.303-0.771,0.311-1.074,0.02l0,0c-0.15-0.146-0.226-0.338-0.227-0.533l0,0    C5.419,17.884,5.49,17.688,5.636,17.537L5.636,17.537z"/>
  </g>
  <g>
    <path d="M32.637,44.537l10.469-10.812c0.291-0.299,0.773-0.307,1.072-0.018l0,0    c0.299,0.292,0.307,0.772,0.018,1.072l0,0L33.727,45.591c-0.291,0.303-0.771,0.311-1.074,0.02l0,0    c-0.15-0.146-0.227-0.338-0.227-0.533l0,0C32.42,44.884,32.49,44.688,32.637,44.537L32.637,44.537z"/>
  </g>
</g>
</svg>