<svg viewBox="0 0 24 24">
    <path d="M24,0.534145l2.97279e-08,-2.09693e-08c-0.957614,0.675477 -2.01789,1.19211 -3.14,1.53l9.66567e-08,1.11138e-07c-1.62369,-1.86694 -4.4534,-2.06414 -6.32035,-0.440457c-0.994159,0.864623 -1.55731,2.12303 -1.53965,3.44046v1l3.07001e-07,-7.96063e-09c-3.56934,0.0925541 -6.94798,-1.60803 -9,-4.53c0,0 -4,9 5,13l-5.77015e-07,3.91677e-07c-2.05947,1.39797 -4.51284,2.09893 -7,2c9,5 20,0 20,-11.5l1.84135e-07,5.58009e-05c-0.000917433,-0.278546 -0.0276955,-0.556405 -0.0799894,-0.83l2.51661e-07,-2.48188e-07c1.02061,-1.00652 1.74083,-2.27732 2.07999,-3.67006Z" transform="translate(-1, 2.46585)" fill="none" stroke="#000"></path>
</svg>