<?xml version="1.0" encoding="UTF-8" standalone="no"?>
<!DOCTYPE svg PUBLIC "-//W3C//DTD SVG 1.1//EN" "http://www.w3.org/Graphics/SVG/1.1/DTD/svg11.dtd">
<svg width="100%" height="100%" viewBox="0 0 1000 50" version="1.1" xmlns="http://www.w3.org/2000/svg" xmlns:xlink="http://www.w3.org/1999/xlink" xml:space="preserve" style="fill-rule:evenodd;clip-rule:evenodd;stroke-linecap:round;stroke-linejoin:round;stroke-miterlimit:1.5;">
    <path d="M975,25C975,25 562.733,25 527.407,25C525.817,25 524.241,25.303 522.765,25.894C521.609,26.357 520.135,26.946 518.667,27.533C514.856,29.058 510.519,28.415 507.314,25.851C507.313,25.851 507.313,25.85 507.313,25.85C503.037,22.43 496.963,22.43 492.687,25.85C492.687,25.85 492.687,25.851 492.686,25.851C489.481,28.415 485.144,29.058 481.333,27.533C479.865,26.946 478.391,26.357 477.235,25.894C475.759,25.303 474.183,25 472.593,25C437.267,25 25,25 25,25" fill="none" />
</svg>
