<svg xmlns="http://www.w3.org/2000/svg" width="100" height="33.541" viewBox="0 0 100 33.541"><path fill="#B52936" class="frame" d="M61.902 2.442c-3.81.957-8.227 1.935-12.155 1.814-2.36-.072-4.593-.62-6.708-1.114C28.777-.18 15.902-1.438 0 2.212l1.022 6.69c.988.02 2.637.38 2.712 2.27.607 15.235 4.573 22.54 19.006 22.163 17.86-.466 22.505-14.76 23.482-20.2.524-2.92 2.027-3.216 3.707-3.26 2.975-.08 3.313 2.094 3.834 3.41 6.123 15.478 9.803 19 22.65 20.118 19.53 1.703 17.28-12.78 19.922-21.195.506-1.608 1.06-2.432 2.828-2.47l.836-6.69C88.682.63 76.937-1.334 61.902 2.442zM4.922 6.486c-1.41 0-2.554-.29-2.554-.65 0-.36 1.144-.65 2.555-.65s2.555.292 2.555.65c0 .36-1.144.65-2.555.65zm36.137 10.31c-2.734 8.066-7.018 13.92-18.022 14.214-10.9 0-14.066-1.986-15.513-14.678 0-8.515-.558-13.5 15.606-13.47 10.9 1.046 22.332.942 17.93 13.935zm51.555-.463C91.168 29.023 88.002 31.01 77.1 31.01c-11.003-.294-15.287-6.147-18.02-14.212-4.402-12.994 7.03-12.89 17.93-13.935 16.162-.03 15.605 4.955 15.605 13.47zm2.74-9.196c-1.41 0-2.555-.292-2.555-.65 0-.36 1.145-.65 2.555-.65s2.555.29 2.555.65c0 .358-1.144.65-2.555.65z"/></svg>