<svg xmlns="http://www.w3.org/2000/svg" width="100" height="100" viewBox="0 0 100 100"><path d="M59.277 35.049v-18.391h4.328c2.269 0 4.124-1.855 4.124-4.122v-1.68c0-2.268-1.855-4.123-4.124-4.123h-27.21c-2.268 0-4.124 1.855-4.124 4.123v1.68c0 2.266 1.855 4.122 4.124 4.122h4.329v18.392l-32.219 47.323c-4.248 5.315-2.156 9.663 4.647 9.663h73.695c6.803 0 8.895-4.348 4.647-9.663l-32.217-47.324z" fill="none"/><path fill="#FFF" d="M95.528 79.413l-31.251-45.904v-11.876c4.719-.345 8.452-4.293 8.452-9.097v-1.68c0-5.03-4.093-9.123-9.124-9.123h-27.21c-5.031 0-9.124 4.093-9.124 9.123v1.68c0 4.804 3.734 8.752 8.453 9.097v11.875l-31.252 45.905c-3.167 4.048-4.003 8.396-2.292 11.952 1.733 3.604 5.733 5.671 10.973 5.671h73.695c5.24 0 9.24-2.067 10.974-5.671 1.71-3.556.873-7.904-2.294-11.952zm-8.68 12.623h-73.696c-6.803 0-8.895-4.348-4.647-9.663l32.218-47.324v-18.391h-4.329c-2.268 0-4.124-1.855-4.124-4.122v-1.68c0-2.268 1.855-4.123 4.124-4.123h27.211c2.269 0 4.124 1.855 4.124 4.123v1.68c0 2.266-1.855 4.122-4.124 4.122h-4.328v18.392l32.218 47.324c4.247 5.314 2.155 9.662-4.647 9.662zM85.387 83.156l-7.529-10.932-9.797-14.224h-16.883l.02.389c0 3.713-3.01 6.724-6.723 6.724s-6.724-3.011-6.724-6.724l.02-.389h-6.066l-2.25 3.306-7.43 10.918-7.429 10.916c-1.238 1.818-.451 3.307 1.75 3.307h67.309c2.199 0 2.977-1.481 1.732-3.291zm-36.913-2.543c-1.505 0-2.725-1.22-2.725-2.725s1.22-2.724 2.725-2.724c1.504 0 2.723 1.219 2.723 2.724s-1.219 2.725-2.723 2.725zm8.249-6.032c-3.051 0-5.525-2.473-5.525-5.525 0-3.052 2.475-5.526 5.525-5.526 3.053 0 5.526 2.475 5.526 5.526 0 3.052-2.474 5.525-5.526 5.525z"/></svg>