<svg xmlns="http://www.w3.org/2000/svg" width="100" height="100" viewBox="0 0 100 100"><path fill="none" d="M59.277 35.05V16.657h4.328c2.27 0 4.124-1.855 4.124-4.122v-1.68c0-2.268-1.856-4.123-4.125-4.123h-27.21c-2.268 0-4.124 1.855-4.124 4.123v1.68c0 2.266 1.856 4.122 4.125 4.122h4.33V35.05L8.504 82.373c-4.248 5.315-2.156 9.663 4.647 9.663h73.695c6.803 0 8.895-4.348 4.647-9.663L59.277 35.05z"/><path fill="#FFF" d="M95.528 79.413L64.278 33.51V21.632c4.718-.345 8.45-4.293 8.45-9.097v-1.68c0-5.03-4.092-9.123-9.123-9.123h-27.21c-5.03 0-9.124 4.093-9.124 9.123v1.68c0 4.804 3.735 8.752 8.454 9.097v11.875L4.472 79.413C1.305 83.46.47 87.81 2.18 91.365c1.733 3.604 5.733 5.67 10.973 5.67h73.695c5.24 0 9.24-2.066 10.974-5.67 1.71-3.556.873-7.904-2.294-11.952zm-8.68 12.623H13.152c-6.803 0-8.895-4.348-4.647-9.663L40.723 35.05V16.657h-4.33c-2.267 0-4.123-1.855-4.123-4.122v-1.68c0-2.268 1.855-4.123 4.124-4.123h27.21c2.27 0 4.125 1.855 4.125 4.123v1.68c0 2.266-1.856 4.122-4.125 4.122h-4.328V35.05l32.218 47.324c4.247 5.314 2.155 9.662-4.647 9.662z"/><path fill="#FFF" d="M85.387 83.156l-7.53-10.932L68.062 58H51.18c.007.13.02.258.02.39 0 3.712-3.01 6.723-6.723 6.723s-6.724-3.01-6.724-6.724c0-.132.013-.26.02-.39H31.706l-2.25 3.306-7.43 10.918-7.43 10.916c-1.237 1.818-.45 3.307 1.75 3.307h67.31c2.2 0 2.977-1.48 1.732-3.29zm-36.913-2.543c-1.505 0-2.725-1.22-2.725-2.725s1.22-2.724 2.724-2.724c1.504 0 2.723 1.22 2.723 2.724s-1.22 2.725-2.723 2.725zm8.25-6.032c-3.052 0-5.526-2.472-5.526-5.524s2.475-5.526 5.525-5.526c3.053 0 5.526 2.475 5.526 5.526 0 3.052-2.475 5.525-5.527 5.525z"/></svg>