<svg xmlns="http://www.w3.org/2000/svg" width="100" height="100" viewBox="0 0 100 100"><path fill="#FFF" d="M182.009 96.97v7.94"/><g fill="#FFF"><path d="M99.845 60.704c0-8.314-6.739-15.054-15.054-15.054s-15.055 6.74-15.055 15.054c0 6.983 4.758 12.855 11.206 14.555-1.478 8.481-6.721 17.311-22.154 17.311-7.017 0-12.586-2.145-16.553-6.374-4.446-4.738-6.252-11.364-6.983-16.145 1.406-2.091 2.552-5.187 2.841-7.672 18.226-9.123 23.57-48.616 23.61-49.009.125-1.255.419-4.184-8.186-8.792-1.054-2.745-3.709-4.578-6.653-4.578-3.936 0-7.136 3.201-7.136 7.136s3.201 7.136 7.136 7.136c1.864 0 3.669-.746 5.001-2.058.959.592 1.771 1.15 2.29 1.573-1.401 9.193-9.157 42.024-23.128 42.996-13.972-.971-21.727-33.801-23.128-42.995.519-.423 1.331-.981 2.29-1.573 1.332 1.311 3.137 2.057 5.001 2.057 3.935 0 7.136-3.201 7.136-7.136s-3.201-7.136-7.135-7.136c-2.945 0-5.599 1.833-6.654 4.579-8.604 4.607-8.311 7.537-8.186 8.792.04.393 5.385 39.886 23.61 49.009.334 2.856 1.877 6.931 3.978 9.09.908 5.704 3.182 13.721 8.849 19.779 5.43 5.807 12.831 8.751 22 8.751 22.796 0 28.351-15.745 29.662-24.693 6.546-1.636 11.395-7.552 11.395-14.603zm-15.054 7.819c-4.319 0-7.82-3.501-7.82-7.819 0-4.319 3.501-7.82 7.82-7.82 4.318 0 7.819 3.501 7.819 7.82 0 4.318-3.501 7.819-7.819 7.819z"/><circle cx="84.791" cy="60.704" r="3.839"/></g></svg>