<svg xmlns="http://www.w3.org/2000/svg" width="100" height="100" viewBox="0 0 100 100"><path fill="#FFF" d="M182.01 96.97v7.94"/><g fill="#FFF"><path d="M99.845 60.704c0-8.314-6.74-15.054-15.054-15.054s-15.054 6.74-15.054 15.054c0 6.983 4.758 12.855 11.206 14.555-1.478 8.48-6.72 17.31-22.154 17.31-7.017 0-12.586-2.145-16.553-6.374-4.446-4.738-6.252-11.364-6.983-16.145 1.406-2.09 2.552-5.186 2.84-7.67 18.227-9.124 23.57-48.617 23.61-49.01.126-1.255.42-4.184-8.185-8.792C52.463 1.833 49.807 0 46.864 0c-3.936 0-7.136 3.2-7.136 7.136s3.2 7.136 7.136 7.136c1.864 0 3.67-.746 5-2.058.96.592 1.772 1.15 2.29 1.573C52.755 22.98 45 55.81 31.028 56.783 17.055 55.813 9.3 22.983 7.9 13.788c.518-.423 1.33-.98 2.29-1.573 1.33 1.31 3.136 2.057 5 2.057 3.935 0 7.136-3.2 7.136-7.136S19.126 0 15.19 0c-2.944 0-5.598 1.833-6.653 4.58C-.067 9.185.227 12.115.35 13.37c.04.394 5.386 39.887 23.61 49.01.335 2.856 1.878 6.93 3.98 9.09.907 5.704 3.18 13.72 8.848 19.78 5.43 5.806 12.83 8.75 22 8.75 22.796 0 28.35-15.745 29.662-24.693 6.546-1.636 11.395-7.552 11.395-14.603zm-15.054 7.82c-4.318 0-7.82-3.502-7.82-7.82 0-4.32 3.502-7.82 7.82-7.82 4.32 0 7.82 3.5 7.82 7.82 0 4.318-3.5 7.82-7.82 7.82z"/><circle cx="84.791" cy="60.704" r="3.839"/></g></svg>