<svg xmlns="http://www.w3.org/2000/svg" xmlns:xlink="http://www.w3.org/1999/xlink" version="1.1" id="research" x="0px" y="0px" width="100px" height="100px" viewBox="0 0 100 100" enable-background="new 0 0 100 100" xml:space="preserve">
<path fill="none" d="M59.277,35.049V16.658h4.328c2.269,0,4.124-1.855,4.124-4.122v-1.68c0-2.268-1.855-4.123-4.124-4.123H36.395  c-2.268,0-4.124,1.855-4.124,4.123v1.68c0,2.266,1.855,4.122,4.124,4.122h4.329v18.392L8.505,82.373  c-4.248,5.315-2.156,9.663,4.647,9.663h73.695c6.803,0,8.895-4.348,4.647-9.663L59.277,35.049z"/>
<path fill="#FFF" d="M95.528,79.413L64.277,33.509V21.633c4.719-0.345,8.452-4.293,8.452-9.097v-1.68c0-5.03-4.093-9.123-9.124-9.123H36.395  c-5.031,0-9.124,4.093-9.124,9.123v1.68c0,4.804,3.734,8.752,8.453,9.097v11.875L4.472,79.413  c-3.167,4.048-4.003,8.396-2.292,11.952c1.733,3.604,5.733,5.671,10.973,5.671h73.695c5.24,0,9.24-2.067,10.974-5.671  C99.532,87.809,98.695,83.461,95.528,79.413z M86.848,92.036H13.152c-6.803,0-8.895-4.348-4.647-9.663l32.218-47.324V16.658h-4.329  c-2.268,0-4.124-1.855-4.124-4.122v-1.68c0-2.268,1.855-4.123,4.124-4.123h27.211c2.269,0,4.124,1.855,4.124,4.123v1.68  c0,2.266-1.855,4.122-4.124,4.122h-4.328v18.392l32.218,47.324C95.742,87.688,93.65,92.036,86.848,92.036z"/>
<path fill="#FFF" d="M85.387,83.156l-7.529-10.932l-9.797-14.224h-4H51.178c0.007,0.129,0.02,0.258,0.02,0.389c0,3.713-3.01,6.724-6.723,6.724  c-3.713,0-6.724-3.011-6.724-6.724c0-0.131,0.012-0.26,0.02-0.389h-2.066h-4l-2.25,3.306l-7.43,10.918l-7.429,10.916  c-1.238,1.818-0.451,3.307,1.75,3.307h67.309C85.854,86.447,86.632,84.966,85.387,83.156z M48.474,80.613  c-1.505,0-2.725-1.22-2.725-2.725s1.22-2.724,2.725-2.724c1.504,0,2.723,1.219,2.723,2.724S49.978,80.613,48.474,80.613z   M56.723,74.581c-3.051,0-5.525-2.473-5.525-5.525c0-3.052,2.475-5.526,5.525-5.526c3.053,0,5.526,2.475,5.526,5.526  C62.249,72.108,59.775,74.581,56.723,74.581z"/>
</svg>