<svg xmlns="http://www.w3.org/2000/svg" width="100" height="100" viewBox="0 0 100 100"><path fill="#FFF" d="M68.736 69.02V65.82h12.66c1.77 0 3.203-1.435 3.203-3.202V17.775c0-1.77-1.436-3.203-3.204-3.203h-62.63c-1.772 0-3.204 1.435-3.204 3.204v44.843c0 1.77 1.433 3.202 3.203 3.202h44.749v3.203h-4.447v1.067c0 .59-.478 1.067-1.068 1.067H45.19c-.593 0-1.07-.48-1.07-1.067V69.02H2.75v2.136s0 3.203 3.203 3.203h57.56v4.29c0 6.798.328 14.35 2.94 14.35 2.61 0 2.283-6.797 2.283-14.35v-4.29H94.21c3.202 0 3.202-3.204 3.202-3.204V69.02H68.736zm-48.903-7.47V18.84H80.33v42.71H68.736v-7.825h.964l-1-8.438c1.755-.736 2.806-2.354 3.055-4.024.752-5.052-2.3-5.747-2.456-7.94-.08-1.116.395-2.393 1.324-3.5.955-1.146 2.173-2.33 2.173-2.33s-3.37-.09-5.286.533c-3.39 1.108-6.576 4.3-7.398 7.845-1.008 4.352-.082 7.826 3.438 9.224l-1.022 8.634h.988v7.823H19.833z"/></svg>