<svg xmlns="http://www.w3.org/2000/svg" width="100" height="100" viewBox="0 0 100 100"><path fill="#FFF" d="M68.736 69.021v-3.203h12.66c1.77 0 3.203-1.435 3.203-3.202v-44.842c0-1.77-1.435-3.203-3.203-3.203h-62.631c-1.771 0-3.203 1.434-3.203 3.203v44.842c0 1.769 1.433 3.202 3.203 3.202h44.749v3.203h-4.447v1.066c0 .59-.478 1.067-1.068 1.067h-12.81c-.592 0-1.068-.479-1.068-1.067v-1.066h-41.371v2.135s0 3.203 3.203 3.203h57.561v4.291c0 6.798.327 14.35 2.938 14.35 2.61 0 2.284-6.797 2.284-14.35v-4.291h25.473c3.203 0 3.203-3.203 3.203-3.203v-2.135h-28.676zm-48.903-7.472v-42.708h60.497v42.708h-11.594v-7.824h.964l-.999-8.438c1.754-.736 2.805-2.354 3.054-4.024.752-5.052-2.301-5.747-2.456-7.941-.078-1.115.396-2.392 1.325-3.499.955-1.146 2.173-2.329 2.173-2.329s-3.371-.092-5.286.532c-3.391 1.108-6.577 4.299-7.399 7.845-1.008 4.351-.082 7.825 3.438 9.223l-1.022 8.634h.988v7.823l-43.683-.002z"/></svg>