<svg xmlns="http://www.w3.org/2000/svg" width="100" height="100" viewBox="0 0 100 100"><g fill="#FFF"><path d="M92.977 50.001c0-23.728-19.234-42.962-42.961-42.962-16.988 0-31.67 9.86-38.642 24.169l6.647 6.651c4.939-12.845 17.393-21.961 31.977-21.961 18.867 0 34.169 15.255 34.249 34.103h-6.91l11.326 11.334 11.337-11.334h-7.023zM49.997 84.398c-18.916 0-34.25-15.334-34.25-34.25l.002-.148c.517-.001 6.915 0 6.915 0l-11.326-11.335-11.338 11.334h7.054v.001c0 23.727 19.234 42.961 42.961 42.961 16.979 0 31.656-9.852 38.632-24.149l-6.589-6.594c-4.881 12.96-17.393 22.18-32.061 22.18z"/><circle cx="50.016" cy="50" r="23.052"/></g></svg>