<svg xmlns="http://www.w3.org/2000/svg" width="100" height="100" viewBox="0 0 100 100"><g fill="#FFF"><path d="M92.977 50c0-23.727-19.234-42.96-42.96-42.96-16.99 0-31.67 9.86-38.643 24.168l6.647 6.65C22.96 25.015 35.415 15.9 50 15.9c18.867 0 34.17 15.255 34.25 34.103h-6.91l11.325 11.335L100 50h-7.023zM49.997 84.398c-18.916 0-34.25-15.334-34.25-34.25L15.75 50h6.914L11.338 38.665 0 50h7.054c0 23.727 19.234 42.96 42.96 42.96 16.98 0 31.657-9.85 38.633-24.148l-6.59-6.594c-4.88 12.96-17.392 22.18-32.06 22.18z"/><circle cx="50.016" cy="50" r="23.052"/></g></svg>